<?xml version="1.0" encoding="UTF-8" standalone="no"?>
<!DOCTYPE svg PUBLIC "-//W3C//DTD SVG 1.1//EN"
"http://www.w3.org/Graphics/SVG/1.1/DTD/svg11.dtd">
<svg viewBox="0 0 935 1210" version="1.1" xmlns="http://www.w3.org/2000/svg" xmlns:xlink="http://www.w3.org/1999/xlink">
<defs>
<clipPath id="c0"><path d="M0,1207.8V0H935V1207.8Z"/></clipPath>
<clipPath id="c1"><path d="M835.8,148.4c-31.2,0,-56.6,-25.3,-56.6,-56.5c0,-31.3,25.4,-56.6,56.6,-56.6c31.2,0,56.6,25.3,56.6,56.6c0,31.2,-25.4,56.5,-56.6,56.5Z"/></clipPath>
<style type="text/css"><![CDATA[
.g0{
fill: #FFFFFF;
}
.g1{
fill: #313C4E;
}
.g2{
fill: #222A33;
}
.g3{
fill: #449399;
}
.g4{
fill: #989DA6;
}
.g5{
fill: #B2B2B2;
}
]]></style>
</defs>
<g clip-path="url(#c0)">
<path d="M0,0H935V1207.8H0V0Z" class="g0"/>
<path d="M0,0H935V222.5H0V0Z" class="g1"/>
<path d="M0,181.6H935v40.9H0V181.6Z" class="g2"/>
</g>
<path d="M205.2,205c-.4,0,-.7,-.2,-1,-.4l-8,-8v11.1c0,.7,.6,1.3,1.3,1.4l4.5,-4.5c.2,-.2,.5,-.2,.7,0c.2,.2,.2,.4,0,.6l-3.9,3.9h12.8l-3.9,-3.9c-.2,-.2,-.2,-.5,0,-.6c.2,-.2,.5,-.2,.7,0l4.5,4.5c.7,-.1,1.3,-.7,1.3,-1.4V196.6l-8,8c-.3,.2,-.6,.4,-1,.4Z" class="g0"/>
<path d="M205.5,203.9l8.4,-8.3c-.3,-.4,-.7,-.6,-1.1,-.6H197.6c-.4,0,-.8,.2,-1.1,.6l8.4,8.3c.1,.2,.4,.2,.6,0Z" class="g0"/>
<path d="M413.8,207.7c0,.3,-.2,.5,-.4,.5c-.3,0,-.5,-.2,-.5,-.5c0,-.2,.2,-.4,.5,-.4c.2,0,.4,.2,.4,.4Z" class="g0"/>
<path d="M417.6,193.1h-8.5c-.8,0,-1.4,.6,-1.4,1.4v15.1c0,.8,.6,1.4,1.4,1.4h8.5c.8,0,1.4,-.6,1.4,-1.4V194.5c0,-.8,-.6,-1.4,-1.4,-1.4Zm-4.2,16c-.8,0,-1.5,-.6,-1.5,-1.4c0,-.8,.7,-1.4,1.5,-1.4c.7,0,1.4,.6,1.4,1.4c0,.8,-.7,1.4,-1.4,1.4Zm1.4,-12.2h-2.9c-.2,-.1,-.4,-.3,-.4,-.5c0,-.3,.2,-.5,.4,-.5h2.9c.1,0,.3,.1,.4,.2c.1,.2,.1,.4,0,.5c-.1,.2,-.3,.3,-.4,.3Z" class="g0"/>
<path fill-rule="evenodd" d="M546.8,193.5c-4.2,0,-7.8,3.1,-8.4,7.2c-.7,4.1,1.7,8.1,5.7,9.4c.4,.1,.6,-.2,.6,-.4c0,-.2,0,-.7,0,-1.4c-2.4,.5,-2.9,-1.2,-2.9,-1.2c-.2,-.5,-.5,-.9,-.9,-1.2c-.8,-.5,0,-.5,0,-.5c.6,0,1,.4,1.3,.8c.2,.5,.6,.8,1.1,.9c.5,.2,1,.1,1.4,-.1c0,-.5,.2,-.9,.5,-1.2c-1.9,-.2,-3.8,-.9,-3.8,-4.2c-.1,-.8,.3,-1.7,.8,-2.3c-.2,-.7,-.2,-1.5,.1,-2.2c0,0,.7,-.3,2.4,.8c1.3,-.3,2.8,-.3,4.2,0c1.6,-1.1,2.4,-.8,2.4,-.8c.3,.7,.3,1.5,0,2.2c.6,.6,.9,1.5,.9,2.3c0,3.3,-2,4,-3.9,4.2c.4,.4,.7,1,.6,1.6c0,1.1,0,2,0,2.3c0,.3,.2,.5,.6,.4c4,-1.3,6.4,-5.3,5.7,-9.4c-.7,-4.1,-4.2,-7.2,-8.4,-7.2Z" class="g0"/>
<path d="M38.1,273.5H231.9v2.8H38.1v-2.8Z" class="g3"/>
<path d="M38.1,497H168v2.8H38.1V497Z" class="g3"/>
<path d="M494.9,273.5h75.8v2.8H494.9v-2.8Z" class="g3"/>
<path fill-rule="evenodd" d="M499.5,292.7h59c2.5,0,4.5,2,4.5,4.5V314c0,2.5,-2,4.5,-4.5,4.5h-59c-2.5,0,-4.6,-2,-4.6,-4.5V297.2c0,-2.5,2.1,-4.5,4.6,-4.5Z" class="g4"/>
<path fill-rule="evenodd" d="M574.9,292.7H677.6c2.5,0,4.5,2,4.5,4.5V314c0,2.5,-2,4.5,-4.5,4.5H574.9c-2.5,0,-4.5,-2,-4.5,-4.5V297.2c0,-2.5,2,-4.5,4.5,-4.5Z" class="g4"/>
<path fill-rule="evenodd" d="M694,292.7H838.3c2.5,0,4.5,2,4.5,4.5V314c0,2.5,-2,4.5,-4.5,4.5H694c-2.5,0,-4.5,-2,-4.5,-4.5V297.2c0,-2.5,2,-4.5,4.5,-4.5Z" class="g4"/>
<path fill-rule="evenodd" d="M499.5,325.9H604.9c2.5,0,4.6,2,4.6,4.5v16.8c0,2.5,-2.1,4.5,-4.6,4.5H499.5c-2.5,0,-4.6,-2,-4.6,-4.5V330.4c0,-2.5,2.1,-4.5,4.6,-4.5Z" class="g4"/>
<path d="M494.9,428.2H726.8V431H494.9v-2.8Z" class="g3"/>
<path d="M494.9,741.2H666.1v2.7H494.9v-2.7Z" class="g3"/>
<path d="M494.9,941.6H629v2.8H494.9v-2.8Z" class="g3"/>
<path d="M494.9,1102.3H613.7v2.8H494.9v-2.8Z" class="g3"/>
<path fill-rule="evenodd" d="M499.5,1121.5H604.9c2.5,0,4.6,2,4.6,4.6v19.5c0,2.5,-2.1,4.6,-4.6,4.6H499.5c-2.5,0,-4.6,-2.1,-4.6,-4.6v-19.5c0,-2.6,2.1,-4.6,4.6,-4.6Zm0,1.4H604.9c1.8,0,3.2,1.4,3.2,3.2v19.5c0,1.7,-1.4,3.2,-3.2,3.2H499.5c-1.8,0,-3.2,-1.5,-3.2,-3.2v-19.5c0,-1.8,1.4,-3.2,3.2,-3.2Z" class="g5"/>
<path fill-rule="evenodd" d="M621.4,1121.5h53.4c2.5,0,4.5,2,4.5,4.6v19.5c0,2.5,-2,4.6,-4.5,4.6H621.4c-2.6,0,-4.6,-2.1,-4.6,-4.6v-19.5c0,-2.6,2,-4.6,4.6,-4.6Zm0,1.4h53.4c1.7,0,3.1,1.4,3.1,3.2v19.5c0,1.7,-1.4,3.2,-3.1,3.2H621.4c-1.8,0,-3.2,-1.5,-3.2,-3.2v-19.5c0,-1.8,1.4,-3.2,3.2,-3.2Z" class="g5"/>
<path fill-rule="evenodd" d="M691.2,1121.5H865.8c2.6,0,4.6,2,4.6,4.6v19.5c0,2.5,-2,4.6,-4.6,4.6H691.2c-2.5,0,-4.5,-2.1,-4.5,-4.6v-19.5c0,-2.6,2,-4.6,4.5,-4.6Zm0,1.4H865.8c1.8,0,3.2,1.4,3.2,3.2v19.5c0,1.7,-1.4,3.2,-3.2,3.2H691.2c-1.7,0,-3.1,-1.5,-3.1,-3.2v-19.5c0,-1.8,1.4,-3.2,3.1,-3.2Z" class="g5"/>
<path fill-rule="evenodd" d="M835.8,31.4c33.4,0,60.4,27.1,60.4,60.5c0,33.3,-27,60.4,-60.4,60.4c-33.3,0,-60.4,-27.1,-60.4,-60.4c0,-33.4,27.1,-60.5,60.4,-60.5Z" class="g3"/>
<path fill-rule="evenodd" d="M835.8,30.7c33.7,0,61.1,27.4,61.1,61.2c0,33.7,-27.4,61.1,-61.1,61.1c-33.7,0,-61.1,-27.4,-61.1,-61.1c0,-33.8,27.4,-61.2,61.1,-61.2Zm0,4.6c31.2,0,56.6,25.3,56.6,56.6c0,31.2,-25.4,56.5,-56.6,56.5c-31.2,0,-56.6,-25.3,-56.6,-56.5c0,-31.3,25.4,-56.6,56.6,-56.6Z" class="g3"/>
<image clip-path="url(#c1)" preserveAspectRatio="none" x="779" y="35" width="113" height="113" xlink:href="img/1.jpg"/>
</svg>